# Blender v2.73 (sub 0) OBJ File: 'fork.blend'
# www.blender.org
mtllib fork.mtl
o EmptyMesh
v 0.041819 0.025820 0.438859
v 0.024937 0.047180 0.165732
v 0.027175 0.047928 -0.001468
v 0.021377 0.036500 -0.254321
v 0.072771 0.015316 -0.331609
v 0.055217 0.039622 -0.599532
v 0.033976 0.019512 -0.377859
v 0.017916 0.039693 -0.600309
v -0.003855 0.019411 -0.376743
v -0.022760 0.039693 -0.600309
v -0.042220 0.019594 -0.378765
v -0.059377 0.039577 -0.599030
v -0.068759 0.015111 -0.329352
v -0.014993 0.036500 -0.253530
v -0.020968 0.047543 0.001065
v -0.023196 0.047543 0.166551
v -0.040022 0.026303 0.440334
v -0.030583 0.019550 -0.378280
v 0.009074 0.019441 -0.377071
v 0.044490 0.019525 -0.378005
v -0.051888 0.039631 -0.599629
v -0.014125 0.039638 -0.599705
v 0.025129 0.039689 -0.600263
v 0.062087 0.039566 -0.598907
v 0.025168 0.025820 0.454978
v -0.021849 0.025820 0.454978
v 0.002006 0.015214 -0.330480
v 0.002006 0.022506 -0.330480
v -0.021849 0.033112 0.454978
v 0.025168 0.033112 0.454978
v 0.062087 0.044975 -0.598907
v 0.025129 0.045098 -0.600263
v -0.014125 0.045047 -0.599705
v -0.051888 0.045040 -0.599629
v 0.044490 0.026817 -0.378005
v 0.009074 0.026732 -0.377071
v -0.030583 0.026842 -0.378280
v -0.040022 0.033594 0.440334
v -0.023196 0.054835 0.166551
v -0.020968 0.054835 0.001065
v -0.014993 0.043792 -0.253530
v -0.068759 0.022403 -0.329352
v -0.059377 0.044986 -0.599030
v -0.042220 0.026886 -0.378765
v -0.022760 0.045102 -0.600309
v -0.003855 0.026703 -0.376743
v 0.017916 0.045102 -0.600309
v 0.033976 0.026804 -0.377859
v 0.055217 0.045031 -0.599532
v 0.072771 0.022608 -0.331609
v 0.021377 0.043792 -0.254321
v 0.027175 0.055219 -0.001468
v 0.024937 0.054472 0.165732
v 0.041819 0.033112 0.438859
vn -0.000000 0.995900 0.090400
vn 0.000000 0.995900 0.090300
vn -0.300600 0.948700 0.098000
vn 0.303000 0.948000 0.098000
vn 0.567600 0.549500 0.613100
vn -0.300200 0.948600 0.099900
vn 0.298900 0.949400 0.096700
vn -0.584600 0.555300 0.591500
vn 0.052000 0.699400 0.712800
vn -0.304100 0.947500 0.099300
vn -0.003700 0.984500 -0.175100
vn -0.005700 0.963400 -0.267800
vn -0.005700 0.963500 -0.267800
vn -0.008600 0.999800 -0.020400
vn -0.004200 0.984900 -0.173100
vn 0.006800 0.999200 0.039300
vn -0.007600 0.999800 -0.018900
vn 0.005600 0.998500 0.054700
vn 0.008100 0.999200 0.040100
vn 0.007000 0.998100 0.061000
vn 0.005700 0.999700 0.022600
vn 0.733600 0.606200 0.307000
vn -0.719600 0.603800 0.342700
vn -0.252100 0.630700 0.733900
vn 0.692900 0.720900 0.012400
vn -0.690100 0.723700 0.003400
vn 0.702500 0.711400 -0.017700
vn -0.705800 0.707900 -0.026300
vn 0.597500 0.801700 0.012800
vn -0.594700 0.803700 0.020100
vn 0.769200 0.608400 0.195400
vn -0.768400 0.604900 0.209000
vn 0.000200 0.996200 0.087500
vn -0.662800 0.747800 0.038500
vn -0.007700 0.996200 0.086200
vn 0.000200 0.996100 0.087700
vn 0.000600 0.996600 0.082000
vn -0.000100 0.996200 0.087700
vn 0.000000 0.996600 0.082000
vn -0.000100 0.996200 0.087600
vn -0.329300 0.941900 0.065300
vn 0.585600 0.608500 -0.535500
vn -0.908100 0.000000 0.418700
vn -0.330500 0.000000 0.943800
vn 0.290800 0.631600 0.718600
vn 0.375200 0.000000 0.927000
vn 0.999700 0.000000 -0.025100
vn -0.999300 0.000000 -0.038000
vn 1.000000 0.000000 -0.005000
vn 0.953100 0.000000 0.302700
vn -0.999800 0.000000 -0.018500
vn 0.966900 0.000000 0.255200
vn -0.948100 0.000000 0.317900
vn 0.743000 0.000000 -0.669200
vn -0.676000 0.000000 -0.736900
vn -0.998800 0.000000 -0.048400
vn -0.532000 0.602600 -0.594700
vn -0.570800 0.550400 0.609200
vn -0.676500 0.000000 0.736500
vn 0.552300 0.544900 0.630800
vn -0.697300 0.000000 0.716700
vn -0.546700 0.544600 0.636000
vn -0.642900 0.000000 0.766000
vn 0.079800 0.000000 0.996800
vn -0.999200 0.000000 0.039700
vn 0.671800 0.000000 0.740700
vn 0.999200 0.000000 0.039600
vn -0.998900 0.000000 0.046000
vn 0.649700 0.000000 0.760200
vn 0.999400 0.000000 0.035200
vn -0.999000 0.000000 0.043700
vn -0.999400 0.000000 -0.034800
vn -0.962500 0.000000 0.271300
vn 0.000000 1.000000 -0.000000
vn -0.000700 0.996600 0.081900
vn 0.000100 0.996600 0.082000
vn 0.928000 0.000000 0.372500
usemtl Material.001
s 1
f 20//1 5//2 24//1
f 7//3 27//2 5//2
f 7//3 19//4 27//2
f 8//5 19//4 7//3
f 9//6 27//2 19//4
f 9//6 18//7 27//2
f 18//7 9//6 22//8
f 12//9 13//2 11//10
f 13//2 27//2 18//7
f 4//11 5//12 13//13
f 3//14 4//11 14//15
f 2//16 3//14 15//17
f 1//18 2//16 16//19
f 1//18 17//20 26//21
f 54//22 38//23 29//24
f 54//22 53//25 39//26
f 53//25 52//27 40//28
f 52//27 51//29 41//30
f 51//29 50//31 42//32
f 42//32 28//2 37//33
f 43//34 42//32 44//35
f 37//33 46//36 33//37
f 46//36 37//33 28//2
f 46//36 28//2 36//38
f 47//39 36//38 48//40
f 48//40 36//38 28//2
f 48//40 28//2 50//31
f 35//41 50//31 31//42
f 17//43 26//44 29//24
f 30//45 29//24 26//44
f 54//22 30//45 25//46
f 2//47 53//25 54//22
f 16//48 17//43 38//23
f 3//49 52//27 53//25
f 16//48 39//26 40//28
f 3//49 4//50 51//29
f 15//51 40//28 41//30
f 4//50 5//52 50//31
f 14//53 41//30 42//32
f 24//54 31//42 50//31
f 6//55 20//56 35//41
f 6//55 49//57 31//42
f 8//5 23//58 32//59
f 10//60 22//8 33//61
f 21//62 34//63 43//64
f 48//65 32//59 23//58
f 8//5 47//66 36//67
f 46//68 33//61 22//8
f 10//60 45//69 37//70
f 44//71 34//63 21//62
f 12//72 13//73 42//32
f 6//1 20//1 24//1
f 20//1 7//3 5//2
f 23//58 8//5 7//3
f 10//60 18//7 22//8
f 21//62 12//9 11//10
f 11//10 13//2 18//7
f 14//15 4//11 13//13
f 15//17 3//14 14//15
f 16//19 2//16 15//17
f 17//20 1//18 16//19
f 25//74 1//18 26//21
f 30//45 54//22 29//24
f 38//23 54//22 39//26
f 39//26 53//25 40//28
f 40//28 52//27 41//30
f 41//30 51//29 42//32
f 44//35 42//32 37//33
f 34//75 43//34 44//35
f 45//37 37//33 33//37
f 32//76 47//39 48//40
f 35//41 48//40 50//31
f 49//57 35//41 31//42
f 38//23 17//43 29//24
f 25//46 30//45 26//44
f 1//77 54//22 25//46
f 1//77 2//47 54//22
f 39//26 16//48 38//23
f 2//47 3//49 53//25
f 15//51 16//48 40//28
f 52//27 3//49 51//29
f 14//53 15//51 41//30
f 51//29 4//50 50//31
f 13//73 14//53 42//32
f 5//52 24//54 50//31
f 49//57 6//55 35//41
f 24//54 6//55 31//42
f 47//66 8//5 32//59
f 45//69 10//60 33//61
f 12//9 21//62 43//64
f 7//3 48//65 23//58
f 19//4 8//5 36//67
f 9//6 46//68 22//8
f 18//7 10//60 37//70
f 11//10 44//71 21//62
f 43//34 12//72 42//32
